<svg width="24" height="24" viewBox="0 0 24 24" xmlns="http://www.w3.org/2000/svg">
    <g fill="none" fill-rule="evenodd">
        <path d="M9.652 12.56v7.251c0 .105.092.189.204.189h2.899c.112 0 .203-.084.203-.189v-7.37h2.1c.106 0 .194-.075.204-.173l.201-2.22c.01-.11-.083-.205-.202-.205h-2.303V8.267c0-.37.322-.669.72-.669h1.619c.112 0 .203-.084.203-.188V5.189c0-.104-.09-.189-.203-.189H12.56c-1.606 0-2.908 1.21-2.908 2.702v2.14H8.203c-.112 0-.203.085-.203.19v2.22c0 .105.09.189.203.189h1.45v.118" fill="#969696"/>
        <path d="M0 0h24v24H0z"/>
    </g>
</svg>
