<svg width="36" height="36" viewBox="0 0 36 36" xmlns="http://www.w3.org/2000/svg">
    <g fill="none" fill-rule="evenodd">
        <rect fill="#306199" width="36" height="36" rx="2"/>
        <path d="M14.479 18.839v10.878c0 .156.137.283.305.283h4.348c.168 0 .305-.127.305-.283V18.66h3.151c.159 0 .29-.112.305-.259l.302-3.331c.015-.165-.125-.307-.303-.307h-3.455v-2.363c0-.555.482-1.004 1.079-1.004h2.43c.168 0 .304-.126.304-.282V7.783c0-.156-.136-.283-.305-.283H18.84c-2.409 0-4.361 1.814-4.361 4.053v3.211h-2.174c-.169 0-.305.127-.305.283v3.331c0 .157.136.283.305.283h2.174v.178" fill="#FFF"/>
        <path d="M0 0h36v36H0z"/>
    </g>
</svg>
