<svg width="24" height="24" viewBox="0 0 24 24" xmlns="http://www.w3.org/2000/svg">
    <g fill="none" fill-rule="evenodd">
        <path d="M18.925 15.265a3.634 3.634 0 0 1-3.638 3.631h-6.99a3.634 3.634 0 0 1-3.638-3.63v-6.98a3.634 3.634 0 0 1 3.638-3.63h6.99a3.634 3.634 0 0 1 3.638 3.63v6.98zm1.659-6.978A5.292 5.292 0 0 0 15.287 3h-6.99A5.292 5.292 0 0 0 3 8.287v6.978a5.292 5.292 0 0 0 5.297 5.287h6.99a5.292 5.292 0 0 0 5.297-5.287V8.287zm-8.762 6.38a2.782 2.782 0 0 1-2.782-2.778 2.782 2.782 0 0 1 5.563 0 2.782 2.782 0 0 1-2.781 2.777zm0-7.112a4.343 4.343 0 0 0-4.343 4.334 4.344 4.344 0 0 0 8.685 0 4.343 4.343 0 0 0-4.342-4.334zm4.596-1.323a1.033 1.033 0 1 0-.003 2.065 1.033 1.033 0 0 0 .003-2.065z" fill="#969696"/>
        <path d="M0 0h24v24H0z"/>
    </g>
</svg>
