<svg width="36" height="36" viewBox="0 0 36 36" xmlns="http://www.w3.org/2000/svg">
    <g fill="none" fill-rule="evenodd">
        <rect fill="#27C4F1" width="36" height="36" rx="2"/>
        <path d="M29.916 11.157c-.715.315-1.501.505-2.273.63.366-.058.906-.703 1.122-.963.329-.397.603-.85.757-1.338.02-.039.034-.087-.005-.115-.05-.019-.08-.01-.12.01-.861.448-1.753.773-2.7 1.003a.183.183 0 0 1-.186-.048c-.079-.086-.152-.167-.236-.235a4.674 4.674 0 0 0-3.314-1.092 4.926 4.926 0 0 0-3.438 1.74 4.528 4.528 0 0 0-.917 1.784c-.158.627-.145 1.248-.048 1.882.014.106.005.12-.094.106-3.708-.536-6.782-1.825-9.276-4.586-.11-.12-.168-.12-.257.01-1.091 1.589-.562 4.142.802 5.397.182.167.369.335.57.487-.073.015-.98-.08-1.79-.487-.108-.066-.163-.028-.172.092-.01.171.005.33.03.515.208 1.611 1.358 3.102 2.932 3.683.186.077.392.144.594.177-.358.077-.728.131-1.756.053-.128-.024-.177.038-.128.158.773 2.045 2.44 2.653 3.689 3 .168.028.335.028.502.066-.01.015-.02.015-.03.029-.413.613-1.85 1.07-2.518 1.297-1.217.413-2.541.598-3.826.475-.206-.03-.25-.026-.305 0-.057.035-.008.082.059.134.26.167.526.316.797.46.816.419 1.667.753 2.557.993 4.597 1.233 9.774.327 13.225-3.004 2.71-2.615 3.66-6.222 3.66-9.833 0-.141.172-.22.275-.294.705-.514 1.265-1.13 1.791-1.818.119-.154.111-.292.111-.348v-.02c0-.057.008-.04-.084 0" fill="#FFF"/>
        <path d="M0 0h36v36H0z"/>
    </g>
</svg>
