<svg width="24" height="24" viewBox="0 0 24 24" xmlns="http://www.w3.org/2000/svg">
    <g fill="none" fill-rule="evenodd">
        <path d="M19.944 7.438c-.476.21-1 .337-1.515.42.244-.039.604-.468.748-.642.219-.265.402-.566.505-.892.012-.026.022-.058-.004-.077-.033-.012-.054-.006-.08.007a7.892 7.892 0 0 1-1.8.669.122.122 0 0 1-.124-.033c-.053-.057-.102-.11-.157-.156a3.116 3.116 0 0 0-2.21-.728 3.284 3.284 0 0 0-2.292 1.16c-.289.347-.502.756-.61 1.189-.106.419-.097.833-.033 1.255.01.07.003.08-.063.07-2.471-.357-4.52-1.216-6.184-3.057-.072-.08-.112-.08-.171.006-.728 1.06-.374 2.762.535 3.6.12.11.245.222.38.324-.05.01-.654-.054-1.194-.325-.072-.044-.108-.019-.114.061-.007.115.003.22.02.344.139 1.074.905 2.068 1.954 2.455.124.051.262.096.397.118-.24.051-.486.087-1.171.035-.086-.015-.118.026-.086.105.515 1.364 1.627 1.77 2.46 2 .112.02.223.02.334.045-.006.01-.013.01-.02.019-.275.409-1.233.713-1.679.865a6.182 6.182 0 0 1-2.55.317c-.137-.02-.167-.018-.203 0-.038.022-.006.054.039.089.174.111.35.21.531.306.544.28 1.112.503 1.705.662 3.064.822 6.516.218 8.817-2.002 1.807-1.744 2.44-4.148 2.44-6.556 0-.094.115-.146.183-.196.47-.343.844-.753 1.194-1.212.08-.102.074-.194.074-.232v-.013c0-.038.005-.026-.056 0" fill="#969696"/>
        <path d="M0 0h24v24H0z"/>
    </g>
</svg>
