<svg width="24" height="24" viewBox="0 0 24 24" xmlns="http://www.w3.org/2000/svg" xmlns:xlink="http://www.w3.org/1999/xlink">
    <defs>
        <path d="M4.852 0C0 0 0 1.38 0 4.771v3.315c0 3.226.687 4.771 4.852 4.771h8.867c3.762 0 4.852-.903 4.852-4.771V4.771c0-3.57-.183-4.771-4.852-4.771H4.852zm2.536 3.744 5.006 2.594-.152.079-.46.242-.001-.001-4.393 2.29V3.745l.004.002-.004-.003z" id="ve6k27mzda"/>
    </defs>
    <g fill="none" fill-rule="evenodd">
        <g transform="translate(3 6)">
            <mask id="x2vex49gab" fill="#fff">
                <use xlink:href="#ve6k27mzda"/>
            </mask>
            <path d="M4.852 0C0 0 0 1.38 0 4.771v3.315c0 3.226.687 4.771 4.852 4.771h8.867c3.762 0 4.852-.903 4.852-4.771V4.771c0-3.57-.183-4.771-4.852-4.771H4.852zm2.536 3.744 5.006 2.594-.152.079-.46.242-.001-.001-4.393 2.29V3.745l.004.002-.004-.003z" fill="#969696" mask="url(#x2vex49gab)"/>
        </g>
        <path d="M0 0h24v24H0z"/>
    </g>
</svg>
